<?xml version="1.0" encoding="utf-8" ?>
<svg xmlns="http://www.w3.org/2000/svg" xmlns:xlink="http://www.w3.org/1999/xlink" width="1024" height="1024">
	<path fill="#427AA1" transform="scale(2 2)" d="M241.997 83.8331C241.95 72.375 238.612 56.6444 253.957 54.0789C267.232 52.2593 270.125 62.9802 270.119 73.6128L270.1 83.8331C273.01 85.3006 275.632 87.3945 278.314 89.2376C298.245 102.936 321.304 114.14 343.671 123.072C357.448 128.573 357.869 128.318 372.565 128.251C372.217 125.579 372.154 123.387 372.565 120.712C382.796 120.718 393.093 120.439 403.314 120.712C402.357 137.984 391.703 151.985 374.498 155.529C369.138 156.634 363.293 156.257 357.834 156.255L258.562 156.248L152.43 156.257C139.096 156.253 129.05 156.462 118.721 146.343C111.397 139.169 108.947 130.7 108.882 120.712C112.246 120.891 115.699 120.734 119.071 120.731L138.54 120.712L138.54 128.849C152.269 129.328 158.716 127.038 171.174 121.988C194.916 112.364 221.066 98.6153 241.997 83.8331Z"/>
	<path fill="#427AA1" transform="scale(2 2)" d="M108.882 225.105C128.028 216.123 145.908 204.161 161.634 190.02C163.678 188.183 165.663 186.198 167.905 184.601L168.218 184.381L345.496 184.381C354.461 197.814 389.707 219.288 404.199 225.105C382.161 228.647 368.5 231.578 345.021 231.51L185.691 231.515C164.44 231.513 147.364 231.105 126.03 227.842C120.373 226.976 114.6 225.124 108.882 225.105Z"/>
	<path fill="#427AA1" transform="scale(2 2)" d="M107.857 286.974C127.683 286.893 149.509 276.875 158.143 258.301L332.279 258.303C339.844 258.302 347.445 258.095 355.003 258.301C358.494 277.74 387.651 285.135 404.199 285.225L404.199 276.597L438.017 276.597C436.276 287.059 432.839 295.427 425.244 303.041C412.687 315.63 404.703 313.702 388.21 313.697L352.625 313.685L119.236 313.707C94.5947 313.715 77.0932 302.443 74.2274 276.597L107.857 276.597L107.857 286.974Z"/>
	<path fill="#427AA1" transform="scale(2 2)" d="M194.989 420.191L195.004 367.457C195.004 358.97 194.605 350.319 194.989 341.848C203.899 341.722 212.822 341.837 221.733 341.848L221.733 420.191L290.11 420.191L290.11 341.848L316.575 341.848L316.575 420.191L345.021 420.191C344.654 411.574 345.015 402.776 345.017 394.144L345.021 341.848L372.565 341.848L372.565 420.191L436.895 420.191L436.895 448.219L396.125 448.219L76.4337 448.219C76.4401 438.877 76.3295 429.531 76.4337 420.191L138.54 420.191L138.538 367.987C138.539 359.288 138.769 350.54 138.54 341.848L166.56 341.848C166.299 350.639 166.555 359.517 166.558 368.316L166.56 420.191L194.989 420.191Z"/>
</svg>
