<?xml version="1.0" encoding="utf-8" ?>
<svg xmlns="http://www.w3.org/2000/svg" xmlns:xlink="http://www.w3.org/1999/xlink" width="1024" height="1024">
	<path fill="#427AA1" transform="scale(2 2)" d="M193.117 100.747L193.117 78.1365L210.509 78.1365L210.509 96.1839L301.658 96.1839L301.658 78.1365L319.275 78.1365L319.275 100.747C332.474 115.729 346.667 127.26 364.751 136.271C372.802 140.282 387.064 146.856 395.924 145.502C400.312 144.832 404.722 140.526 409.196 143.13C417.482 147.952 411.749 160.041 408.101 166.055C399.659 179.969 389.556 184.682 374.749 188.266L374.749 220.653C379.191 223.161 383.199 226.706 387.418 229.591C398.615 237.247 423.551 253.006 437.73 248.969C443.295 247.384 451.033 244.825 451.174 255.279C451.497 279.288 428.146 292.691 406.238 293.04L406.238 406.058L452.231 406.058L452.231 423.745L336.875 423.745L61.3779 423.745L61.3779 406.058L105.676 406.058L105.676 293.606C86.4777 292.368 69.1988 284.992 62.1034 265.678C57.6683 253.605 59.985 241.725 74.3874 249.223C96.8401 252.155 120.329 231.836 137.15 219.703L137.15 188.266C119.554 182.63 106.061 177.081 100.151 157.616C98.9166 153.549 97.6051 148.717 100.831 145.188C107.034 138.4 110.754 145.739 117.157 145.515C144.896 144.546 174.376 120.667 193.117 100.747ZM237.316 113.687L205.275 113.687C184.285 137.332 154.655 157.259 123.047 162.698C134.183 171.555 146.19 170.982 159.64 170.956L274.125 170.95L357.628 170.959C368.771 170.966 379.1 171.185 387.601 162.698C358.411 156.716 325.946 136.761 307.676 113.687C299.943 113.487 292.158 113.686 284.419 113.687L237.316 113.687ZM154.72 188.266L154.72 216.774L167.967 216.808C169.962 216.819 172.368 217.088 174.309 216.774L174.309 188.266L154.72 188.266ZM192.143 188.266L192.143 216.774L320.251 216.774C320.579 207.304 320.225 197.747 320.251 188.266L192.143 188.266ZM337.577 188.266L337.577 216.774L357.158 216.774L357.158 188.266L337.577 188.266ZM360.123 234.258L164.718 234.262C146.767 234.263 151.23 231.266 137.532 241.267C119.565 254.385 103.619 263.752 81.3564 265.747C91.5699 277.394 106.696 275.722 120.648 275.717L150.625 275.697L387.02 275.694C402.806 275.702 416.608 278.822 428.833 266.729C404.692 263.461 383.76 248.862 364.985 234.258C363.356 234.2 361.752 234.149 360.123 234.258ZM123.047 293.04L123.047 406.058L142.997 406.078C145.813 406.088 149.154 406.449 151.916 406.058L151.916 293.04L123.047 293.04ZM169.245 293.04L169.236 392.683C169.226 397.12 169.053 401.627 169.245 406.058L209.733 406.058L209.733 312.195L298.974 312.195L298.974 355.481L298.974 406.058L341.868 406.058L341.868 293.04L169.245 293.04ZM359.256 293.04L359.256 406.058C369.012 406.055 378.856 405.801 388.604 406.058L388.604 293.04L359.256 293.04ZM226.781 329.895L226.781 406.058L267.138 406.058C268.597 406.059 281.032 406.557 281.61 406.058L281.61 329.895L245.199 329.885C239.088 329.883 232.882 329.655 226.781 329.895Z"/>
</svg>
